<mxfile host="Electron" agent="Mozilla/5.0 (Windows NT 10.0; Win64; x64) AppleWebKit/537.36 (KHTML, like Gecko) draw.io/26.0.9 Chrome/128.0.6613.186 Electron/32.2.5 Safari/537.36" version="26.0.9">
  <diagram name="Page-1" id="nByBlB__QkJrU7PjP-_w">
    <mxGraphModel dx="1036" dy="1802" grid="1" gridSize="10" guides="1" tooltips="1" connect="1" arrows="1" fold="1" page="1" pageScale="1" pageWidth="850" pageHeight="1100" math="0" shadow="0">
      <root>
        <mxCell id="0" />
        <mxCell id="1" parent="0" />
        <mxCell id="0H1V_eBblgAdh8DgZs7y-1" value="&lt;p style=&quot;margin:0px;margin-top:4px;text-align:center;&quot;&gt;&lt;b&gt;Card&lt;/b&gt;&lt;/p&gt;&lt;hr size=&quot;1&quot; style=&quot;border-style:solid;&quot;&gt;&lt;div style=&quot;height:2px;&quot;&gt;card_id: VARCHAR&amp;nbsp;{PK}&lt;br&gt;created_date: DATETIME&lt;br&gt;due_date: DATETIME&lt;span style=&quot;white-space: pre;&quot;&gt;&#x9;&lt;/span&gt;&lt;br&gt;estimation: DECIMAL&lt;br&gt;&lt;br&gt;&lt;/div&gt;&lt;div style=&quot;height:2px;&quot;&gt;&amp;nbsp;&lt;br&gt;&lt;br&gt;&lt;/div&gt;" style="verticalAlign=top;align=left;overflow=fill;html=1;whiteSpace=wrap;" parent="1" vertex="1">
          <mxGeometry x="380" y="173.75" width="160" height="92.5" as="geometry" />
        </mxCell>
        <mxCell id="0H1V_eBblgAdh8DgZs7y-2" value="&lt;p style=&quot;margin:0px;margin-top:4px;text-align:center;&quot;&gt;&lt;b&gt;Comment&lt;/b&gt;&lt;/p&gt;&lt;hr size=&quot;1&quot; style=&quot;border-style:solid;&quot;&gt;comment_id: VARCHAR&amp;nbsp;{PK}&lt;br&gt;comment_date: DATE&lt;br&gt;card_id: VARCHAR&amp;nbsp;{FK}&lt;br&gt;user_id: VARCHAR&amp;nbsp;{FK}" style="verticalAlign=top;align=left;overflow=fill;html=1;whiteSpace=wrap;" parent="1" vertex="1">
          <mxGeometry x="630" y="175" width="160" height="90" as="geometry" />
        </mxCell>
        <mxCell id="0H1V_eBblgAdh8DgZs7y-3" value="&lt;p style=&quot;margin:0px;margin-top:4px;text-align:center;&quot;&gt;&lt;b&gt;User&lt;/b&gt;&lt;/p&gt;&lt;hr size=&quot;1&quot; style=&quot;border-style:solid;&quot;&gt;user_id: VARCHAR&amp;nbsp;{PK}" style="verticalAlign=top;align=left;overflow=fill;html=1;whiteSpace=wrap;" parent="1" vertex="1">
          <mxGeometry x="540" y="-5" width="140" height="60" as="geometry" />
        </mxCell>
        <mxCell id="0H1V_eBblgAdh8DgZs7y-4" value="&lt;p style=&quot;margin:0px;margin-top:4px;text-align:center;&quot;&gt;&lt;b&gt;List&lt;/b&gt;&lt;br&gt;&lt;/p&gt;&lt;hr size=&quot;1&quot; style=&quot;border-style:solid;&quot;&gt;list_id: VARCHAR&amp;nbsp;{PK}&lt;br&gt;list_name: VARCHAR" style="verticalAlign=top;align=left;overflow=fill;html=1;whiteSpace=wrap;" parent="1" vertex="1">
          <mxGeometry x="220" y="-10" width="140" height="70" as="geometry" />
        </mxCell>
        <mxCell id="0H1V_eBblgAdh8DgZs7y-5" value="&lt;p style=&quot;margin:0px;margin-top:4px;text-align:center;&quot;&gt;&lt;b&gt;Action&lt;/b&gt;&lt;br&gt;&lt;/p&gt;&lt;hr size=&quot;1&quot; style=&quot;border-style:solid;&quot;&gt;action_id: VARCHAR {PK}&lt;br&gt;action_date: DATE&lt;br&gt;action_type: VARCHAR&lt;br&gt;card_id: VARCHAR {FK}&lt;br&gt;old_list_id: VARCHAR&amp;nbsp;{FK}&lt;br&gt;new_list_id: VARCHAR&amp;nbsp;{FK}&lt;div&gt;&lt;br&gt;&lt;/div&gt;" style="verticalAlign=top;align=left;overflow=fill;html=1;whiteSpace=wrap;" parent="1" vertex="1">
          <mxGeometry x="130" y="160" width="160" height="120" as="geometry" />
        </mxCell>
        <mxCell id="8BV9OexIy9hAE5rKFABg-1" value="" style="endArrow=none;html=1;rounded=0;exitX=0.5;exitY=0;exitDx=0;exitDy=0;entryX=0.5;entryY=1;entryDx=0;entryDy=0;edgeStyle=orthogonalEdgeStyle;" parent="1" source="0H1V_eBblgAdh8DgZs7y-5" target="0H1V_eBblgAdh8DgZs7y-4" edge="1">
          <mxGeometry width="50" height="50" relative="1" as="geometry">
            <mxPoint x="230" y="150" as="sourcePoint" />
            <mxPoint x="280" y="100" as="targetPoint" />
          </mxGeometry>
        </mxCell>
        <mxCell id="8BV9OexIy9hAE5rKFABg-8" value="2" style="edgeLabel;html=1;align=center;verticalAlign=middle;resizable=0;points=[];" parent="8BV9OexIy9hAE5rKFABg-1" vertex="1" connectable="0">
          <mxGeometry x="0.3993" y="3" relative="1" as="geometry">
            <mxPoint x="14" y="-42" as="offset" />
          </mxGeometry>
        </mxCell>
        <mxCell id="8BV9OexIy9hAE5rKFABg-9" value="0..*" style="edgeLabel;html=1;align=center;verticalAlign=middle;resizable=0;points=[];" parent="8BV9OexIy9hAE5rKFABg-1" vertex="1" connectable="0">
          <mxGeometry x="-0.8744" y="-1" relative="1" as="geometry">
            <mxPoint x="14" as="offset" />
          </mxGeometry>
        </mxCell>
        <mxCell id="8BV9OexIy9hAE5rKFABg-2" value="" style="endArrow=none;html=1;rounded=0;exitX=1;exitY=0.5;exitDx=0;exitDy=0;entryX=0;entryY=0.5;entryDx=0;entryDy=0;" parent="1" source="0H1V_eBblgAdh8DgZs7y-5" target="0H1V_eBblgAdh8DgZs7y-1" edge="1">
          <mxGeometry width="50" height="50" relative="1" as="geometry">
            <mxPoint x="215" y="180" as="sourcePoint" />
            <mxPoint x="300" y="70" as="targetPoint" />
          </mxGeometry>
        </mxCell>
        <mxCell id="8BV9OexIy9hAE5rKFABg-6" value="1" style="edgeLabel;html=1;align=center;verticalAlign=middle;resizable=0;points=[];" parent="8BV9OexIy9hAE5rKFABg-2" vertex="1" connectable="0">
          <mxGeometry x="0.4474" y="-2" relative="1" as="geometry">
            <mxPoint x="17" y="-12" as="offset" />
          </mxGeometry>
        </mxCell>
        <mxCell id="8BV9OexIy9hAE5rKFABg-7" value="0..*" style="edgeLabel;html=1;align=center;verticalAlign=middle;resizable=0;points=[];" parent="8BV9OexIy9hAE5rKFABg-2" vertex="1" connectable="0">
          <mxGeometry x="-0.16" relative="1" as="geometry">
            <mxPoint x="-22" y="-10" as="offset" />
          </mxGeometry>
        </mxCell>
        <mxCell id="8BV9OexIy9hAE5rKFABg-3" value="" style="endArrow=none;html=1;rounded=0;exitX=1;exitY=0.5;exitDx=0;exitDy=0;entryX=0;entryY=0.5;entryDx=0;entryDy=0;" parent="1" source="0H1V_eBblgAdh8DgZs7y-1" target="0H1V_eBblgAdh8DgZs7y-2" edge="1">
          <mxGeometry width="50" height="50" relative="1" as="geometry">
            <mxPoint x="225" y="190" as="sourcePoint" />
            <mxPoint x="310" y="80" as="targetPoint" />
          </mxGeometry>
        </mxCell>
        <mxCell id="8BV9OexIy9hAE5rKFABg-12" value="0..*" style="edgeLabel;html=1;align=center;verticalAlign=middle;resizable=0;points=[];" parent="8BV9OexIy9hAE5rKFABg-3" vertex="1" connectable="0">
          <mxGeometry x="0.8076" y="1" relative="1" as="geometry">
            <mxPoint y="11" as="offset" />
          </mxGeometry>
        </mxCell>
        <mxCell id="8BV9OexIy9hAE5rKFABg-13" value="1" style="edgeLabel;html=1;align=center;verticalAlign=middle;resizable=0;points=[];" parent="8BV9OexIy9hAE5rKFABg-3" vertex="1" connectable="0">
          <mxGeometry x="-0.8591" y="1" relative="1" as="geometry">
            <mxPoint y="11" as="offset" />
          </mxGeometry>
        </mxCell>
        <mxCell id="8BV9OexIy9hAE5rKFABg-4" value="" style="endArrow=none;html=1;rounded=0;exitX=0.5;exitY=0;exitDx=0;exitDy=0;entryX=0.5;entryY=1;entryDx=0;entryDy=0;edgeStyle=orthogonalEdgeStyle;" parent="1" source="0H1V_eBblgAdh8DgZs7y-2" target="0H1V_eBblgAdh8DgZs7y-3" edge="1">
          <mxGeometry width="50" height="50" relative="1" as="geometry">
            <mxPoint x="235" y="200" as="sourcePoint" />
            <mxPoint x="320" y="90" as="targetPoint" />
          </mxGeometry>
        </mxCell>
        <mxCell id="8BV9OexIy9hAE5rKFABg-10" value="0..*" style="edgeLabel;html=1;align=center;verticalAlign=middle;resizable=0;points=[];" parent="8BV9OexIy9hAE5rKFABg-4" vertex="1" connectable="0">
          <mxGeometry x="-0.7636" y="-1" relative="1" as="geometry">
            <mxPoint x="9" y="16" as="offset" />
          </mxGeometry>
        </mxCell>
        <mxCell id="8BV9OexIy9hAE5rKFABg-11" value="1" style="edgeLabel;html=1;align=center;verticalAlign=middle;resizable=0;points=[];" parent="8BV9OexIy9hAE5rKFABg-4" vertex="1" connectable="0">
          <mxGeometry x="0.9068" relative="1" as="geometry">
            <mxPoint x="10" as="offset" />
          </mxGeometry>
        </mxCell>
      </root>
    </mxGraphModel>
  </diagram>
</mxfile>
